<svg width="20" height="20" viewBox="0 0 20 20" fill="none" xmlns="http://www.w3.org/2000/svg">
<path d="M10 1.25C5.16797 1.25 1.25 5.16797 1.25 10C1.25 14.832 5.16797 18.75 10 18.75C14.832 18.75 18.75 14.832 18.75 10C18.75 5.16797 14.832 1.25 10 1.25ZM10 17.2656C5.98828 17.2656 2.73438 14.0117 2.73438 10C2.73438 5.98828 5.98828 2.73438 10 2.73438C14.0117 2.73438 17.2656 5.98828 17.2656 10C17.2656 14.0117 14.0117 17.2656 10 17.2656ZM10.1094 6.86133C11.1445 6.86133 11.8477 7.52148 11.9258 8.49023C11.9316 8.57227 12 8.63477 12.082 8.63477H13.1895C13.2402 8.63477 13.2812 8.59375 13.2812 8.54297C13.2812 6.84961 11.9453 5.66406 10.1035 5.66406C7.95703 5.66406 6.71875 7.11328 6.71875 9.50781V10.5293C6.71875 12.9062 7.95703 14.3359 10.1035 14.3359C11.9395 14.3359 13.2812 13.1875 13.2812 11.5742C13.2812 11.5234 13.2402 11.4824 13.1895 11.4824H12.0801C11.998 11.4824 11.9316 11.5449 11.9238 11.625C11.8418 12.5254 11.1406 13.1445 10.1074 13.1445C8.83203 13.1445 8.11328 12.209 8.11328 10.5352V9.50781C8.11523 7.80859 8.83594 6.86133 10.1094 6.86133Z" fill="black"/>
</svg>
