<svg xmlns="http://www.w3.org/2000/svg" width="375" viewBox="0 0 375 375" height="375" version="1.0"><defs><clipPath id="a"><path d="M 52 70 L 324 70 L 324 305 L 52 305 Z M 52 70"/></clipPath><clipPath id="b"><path d="M 4.027344 207.96875 L 254.089844 15.179688 L 370.859375 166.644531 L 120.800781 359.433594 Z M 4.027344 207.96875"/></clipPath><clipPath id="c"><path d="M 3.558594 207.363281 L 253.621094 14.574219 L 371.765625 167.820312 L 121.707031 360.605469 Z M 3.558594 207.363281"/></clipPath></defs><g clip-path="url(#a)"><g clip-path="url(#b)"><g clip-path="url(#c)"><path fill="#545454" d="M 291.171875 78.484375 C 291.171875 78.484375 280.511719 86.703125 274.613281 91.25 C 252.09375 75.558594 223.617188 72.980469 198.722656 84.332031 C 195.246094 79.824219 191.171875 74.535156 191.171875 74.535156 C 188.039062 70.472656 182.210938 69.707031 178.148438 72.839844 L 157.972656 88.394531 C 153.910156 91.523438 153.164062 97.359375 156.296875 101.421875 L 176.984375 128.257812 L 154.726562 145.417969 C 150.667969 148.550781 149.914062 154.371094 153.054688 158.445312 C 156.191406 162.511719 162.011719 163.265625 166.074219 160.136719 L 188.332031 142.976562 L 229.820312 196.785156 L 207.558594 213.949219 C 203.5 217.078125 202.753906 222.910156 205.882812 226.96875 C 209.027344 231.046875 214.851562 231.800781 218.910156 228.671875 L 241.171875 211.507812 L 263.03125 239.863281 C 266.160156 243.921875 271.992188 244.683594 276.054688 241.554688 L 296.230469 226 C 300.292969 222.867188 301.03125 217.035156 297.902344 212.976562 C 297.902344 212.976562 293.832031 207.695312 290.363281 203.199219 C 307.65625 181.984375 312.417969 153.800781 302.976562 128.042969 C 308.878906 123.492188 319.535156 115.273438 319.535156 115.273438 C 323.589844 112.152344 324.359375 106.328125 321.210938 102.242188 L 304.191406 80.167969 C 301.054688 76.101562 295.226562 75.359375 291.171875 78.484375 Z M 99.289062 133.617188 L 79.128906 149.15625 C 75.0625 152.292969 74.316406 158.125 77.453125 162.191406 C 77.453125 162.191406 81.53125 167.484375 85.003906 171.984375 C 67.707031 193.179688 62.910156 221.371094 72.355469 247.152344 C 66.464844 251.695312 55.808594 259.914062 55.808594 259.914062 C 51.742188 263.046875 50.996094 268.890625 54.128906 272.957031 L 71.148438 295.03125 C 74.296875 299.113281 80.121094 299.855469 84.1875 296.722656 C 84.1875 296.722656 94.84375 288.503906 100.714844 283.980469 C 123.253906 299.640625 151.746094 302.1875 176.632812 290.839844 C 180.113281 295.351562 184.195312 300.644531 184.195312 300.644531 C 187.324219 304.703125 193.15625 305.464844 197.21875 302.332031 L 217.378906 286.789062 C 221.441406 283.660156 222.203125 277.8125 219.074219 273.753906 L 197.074219 245.21875 L 173.425781 263.453125 C 169.367188 266.582031 163.53125 265.808594 160.402344 261.75 C 157.265625 257.683594 158.011719 251.851562 162.070312 248.71875 L 185.71875 230.488281 L 144.1875 176.617188 L 120.539062 194.851562 C 116.476562 197.980469 110.660156 197.230469 107.519531 193.160156 C 104.394531 189.105469 105.132812 183.265625 109.195312 180.136719 L 132.84375 161.90625 L 112.332031 135.300781 C 109.195312 131.234375 103.347656 130.484375 99.289062 133.617188 Z M 99.289062 133.617188"/></g></g></g></svg>